<mxfile host="app.diagrams.net" agent="Mozilla/5.0 (Windows NT 10.0; Win64; x64) AppleWebKit/537.36 (KHTML, like Gecko) Chrome/130.0.0.0 YaBrowser/24.12.0.0 Safari/537.36" version="26.0.11">
  <diagram name="Страница — 1" id="VTpUu14SS6Ktj-Iox-bN">
    <mxGraphModel dx="1386" dy="783" grid="1" gridSize="10" guides="1" tooltips="1" connect="1" arrows="1" fold="1" page="1" pageScale="1" pageWidth="827" pageHeight="1169" math="0" shadow="0">
      <root>
        <mxCell id="0" />
        <mxCell id="1" parent="0" />
        <mxCell id="Hen97qG7PZyWvNh6N_9h-62" value="" style="edgeStyle=orthogonalEdgeStyle;rounded=0;orthogonalLoop=1;jettySize=auto;html=1;" parent="1" source="Hen97qG7PZyWvNh6N_9h-1" target="Hen97qG7PZyWvNh6N_9h-61" edge="1">
          <mxGeometry relative="1" as="geometry" />
        </mxCell>
        <mxCell id="Hen97qG7PZyWvNh6N_9h-1" value="Начало" style="ellipse;whiteSpace=wrap;html=1;" parent="1" vertex="1">
          <mxGeometry x="340" width="120" height="80" as="geometry" />
        </mxCell>
        <mxCell id="Hen97qG7PZyWvNh6N_9h-5" value="" style="edgeStyle=orthogonalEdgeStyle;rounded=0;orthogonalLoop=1;jettySize=auto;html=1;" parent="1" source="Hen97qG7PZyWvNh6N_9h-2" target="Hen97qG7PZyWvNh6N_9h-4" edge="1">
          <mxGeometry relative="1" as="geometry" />
        </mxCell>
        <mxCell id="Hen97qG7PZyWvNh6N_9h-2" value="Начало цикла" style="shape=loopLimit;whiteSpace=wrap;html=1;" parent="1" vertex="1">
          <mxGeometry x="350" y="260" width="100" height="80" as="geometry" />
        </mxCell>
        <mxCell id="Hen97qG7PZyWvNh6N_9h-7" value="" style="edgeStyle=orthogonalEdgeStyle;rounded=0;orthogonalLoop=1;jettySize=auto;html=1;" parent="1" source="Hen97qG7PZyWvNh6N_9h-4" target="Hen97qG7PZyWvNh6N_9h-6" edge="1">
          <mxGeometry relative="1" as="geometry" />
        </mxCell>
        <mxCell id="Hen97qG7PZyWvNh6N_9h-8" value="Да" style="edgeLabel;html=1;align=center;verticalAlign=middle;resizable=0;points=[];" parent="Hen97qG7PZyWvNh6N_9h-7" vertex="1" connectable="0">
          <mxGeometry x="-0.2" y="-1" relative="1" as="geometry">
            <mxPoint as="offset" />
          </mxGeometry>
        </mxCell>
        <mxCell id="Hen97qG7PZyWvNh6N_9h-10" value="" style="edgeStyle=orthogonalEdgeStyle;rounded=0;orthogonalLoop=1;jettySize=auto;html=1;" parent="1" source="Hen97qG7PZyWvNh6N_9h-4" target="Hen97qG7PZyWvNh6N_9h-9" edge="1">
          <mxGeometry relative="1" as="geometry" />
        </mxCell>
        <mxCell id="Hen97qG7PZyWvNh6N_9h-14" value="Нет" style="edgeLabel;html=1;align=center;verticalAlign=middle;resizable=0;points=[];" parent="Hen97qG7PZyWvNh6N_9h-10" vertex="1" connectable="0">
          <mxGeometry x="-0.5337" relative="1" as="geometry">
            <mxPoint as="offset" />
          </mxGeometry>
        </mxCell>
        <mxCell id="Hen97qG7PZyWvNh6N_9h-4" value="Кнопка аварийного отключения нажата?" style="rhombus;whiteSpace=wrap;html=1;" parent="1" vertex="1">
          <mxGeometry x="330" y="370" width="140" height="140" as="geometry" />
        </mxCell>
        <mxCell id="Hen97qG7PZyWvNh6N_9h-6" value="Конец" style="rounded=1;whiteSpace=wrap;html=1;" parent="1" vertex="1">
          <mxGeometry x="520" y="410" width="120" height="60" as="geometry" />
        </mxCell>
        <mxCell id="Hen97qG7PZyWvNh6N_9h-16" value="" style="edgeStyle=orthogonalEdgeStyle;rounded=0;orthogonalLoop=1;jettySize=auto;html=1;" parent="1" source="Hen97qG7PZyWvNh6N_9h-9" edge="1">
          <mxGeometry relative="1" as="geometry">
            <mxPoint x="400" y="730" as="targetPoint" />
          </mxGeometry>
        </mxCell>
        <mxCell id="Hen97qG7PZyWvNh6N_9h-9" value="Карта приложена к считывателю?" style="rhombus;whiteSpace=wrap;html=1;" parent="1" vertex="1">
          <mxGeometry x="335" y="544.5" width="130" height="130" as="geometry" />
        </mxCell>
        <mxCell id="Hen97qG7PZyWvNh6N_9h-64" value="" style="edgeStyle=orthogonalEdgeStyle;rounded=0;orthogonalLoop=1;jettySize=auto;html=1;" parent="1" source="Hen97qG7PZyWvNh6N_9h-61" target="Hen97qG7PZyWvNh6N_9h-63" edge="1">
          <mxGeometry relative="1" as="geometry" />
        </mxCell>
        <mxCell id="Hen97qG7PZyWvNh6N_9h-61" value="Включение красной лампочки светодиодом" style="rounded=0;whiteSpace=wrap;html=1;" parent="1" vertex="1">
          <mxGeometry x="340" y="100" width="120" height="60" as="geometry" />
        </mxCell>
        <mxCell id="Hen97qG7PZyWvNh6N_9h-65" value="" style="edgeStyle=orthogonalEdgeStyle;rounded=0;orthogonalLoop=1;jettySize=auto;html=1;" parent="1" source="Hen97qG7PZyWvNh6N_9h-63" target="Hen97qG7PZyWvNh6N_9h-2" edge="1">
          <mxGeometry relative="1" as="geometry" />
        </mxCell>
        <mxCell id="Hen97qG7PZyWvNh6N_9h-63" value="Вывод на экран сообщения о готовности считывания карты" style="rounded=0;whiteSpace=wrap;html=1;" parent="1" vertex="1">
          <mxGeometry x="340" y="180" width="120" height="60" as="geometry" />
        </mxCell>
        <mxCell id="A1E6SQiwPL2_fQ2Rslsk-1" value="Да" style="text;html=1;align=center;verticalAlign=middle;whiteSpace=wrap;rounded=0;" parent="1" vertex="1">
          <mxGeometry x="369" y="680" width="60" height="30" as="geometry" />
        </mxCell>
        <mxCell id="A1E6SQiwPL2_fQ2Rslsk-2" value="" style="endArrow=classic;html=1;rounded=0;exitX=1;exitY=0.5;exitDx=0;exitDy=0;" parent="1" source="Hen97qG7PZyWvNh6N_9h-9" edge="1">
          <mxGeometry width="50" height="50" relative="1" as="geometry">
            <mxPoint x="470" y="610" as="sourcePoint" />
            <mxPoint x="560" y="610" as="targetPoint" />
          </mxGeometry>
        </mxCell>
        <mxCell id="A1E6SQiwPL2_fQ2Rslsk-3" value="2" style="ellipse;whiteSpace=wrap;html=1;aspect=fixed;" parent="1" vertex="1">
          <mxGeometry x="560" y="599.5" width="20" height="20" as="geometry" />
        </mxCell>
        <mxCell id="A1E6SQiwPL2_fQ2Rslsk-4" value="1" style="ellipse;whiteSpace=wrap;html=1;aspect=fixed;" parent="1" vertex="1">
          <mxGeometry x="390" y="730" width="20" height="20" as="geometry" />
        </mxCell>
      </root>
    </mxGraphModel>
  </diagram>
</mxfile>
